# xmcd
#
# Track frame offsets: 
#        150
#        17982
#        28475
#        40047
#        52397
#        68227
#        81922
#        96892
#        109840
#        119517
#        132140
#        142472
#        158525
#        170225
#        184637
#        196762
#        207947
#        218165
#        229862
#        241805
#        252955
#        264910
#        275800
#        289547
#        300210
#        311592
#        322232
#        331855
#
# Disc length: 4477 seconds
#
# Revision: 9
# Processed by: cddbd v1.5.2PL0 Copyright (c) Steve Scherf et al.
# Submitted via: ExactAudioCopy v0.99pb4
#
DISCID=a8117b1c
DTITLE=The Zombies - Zombie Heaven CD 2 Odessey and Oracle and The Lost 
DTITLE=Album
DYEAR=1997
DGENRE=Rock
TTITLE0=Care Of Cell 44
TTITLE1=A Rose For Emily
TTITLE2=Maybe After He's Gone
TTITLE3=Beechwood Park
TTITLE4=Brief Candles
TTITLE5=Hung Up On A Dream
TTITLE6=Changes
TTITLE7=I Want Her She Wants Me
TTITLE8=This Will Be Our Year [Mono]
TTITLE9=Butcher's Tale (Western Front 1914)
TTITLE10=Friends Of Mine
TTITLE11=Time Of The Season
TTITLE12=I'll Call You Mine [Single]
TTITLE13=Imagine The Swan
TTITLE14=Conversation Off Floral Street
TTITLE15=If It Don't Work Out [Overdubbed]
TTITLE16=Don't Cry For Me [Overdubbed]
TTITLE17=I Know She Will [Overdubbed]
TTITLE18=Walking In The Sun [Overdubbed]
TTITLE19=I'll Keep Trying [Overdubbed]
TTITLE20=I'll Call You Mine [Overdubbed]
TTITLE21=Smokey Day
TTITLE22=She Loves The Way They Love Her
TTITLE23=Girl Help Me
TTITLE24=I Could Spend The Day
TTITLE25=A Rose For Emily [Alternate Version]
TTITLE26=This Will Be Our Year [Stereo]
TTITLE27=Time Of The Season [US Radio Spot]
EXTD=
EXTT0=
EXTT1=
EXTT2=
EXTT3=
EXTT4=
EXTT5=
EXTT6=
EXTT7=
EXTT8=
EXTT9=
EXTT10=
EXTT11=
EXTT12=
EXTT13=
EXTT14=
EXTT15=
EXTT16=
EXTT17=
EXTT18=
EXTT19=
EXTT20=
EXTT21=
EXTT22=
EXTT23=
EXTT24=
EXTT25=
EXTT26=
EXTT27=
PLAYORDER=
